<svg width="128" height="128" viewBox="0 0 128 128" xmlns="http://www.w3.org/2000/svg">
  <g fill="none" stroke="currentColor" stroke-width="6" stroke-linecap="round" stroke-linejoin="round">
    <circle cx="64" cy="36" r="14" />
    <path d="M 64 22 V 12" />
    <path d="M 64 50 V 60" />

    <path d="M 38 42 H 26" />
    <path d="M 90 42 H 102" />

    <path d="M 30 42 L 42 88" />
    <path d="M 98 42 L 86 88" />

    <path d="M 50 88 V 108" />
    <path d="M 78 88 V 108" />

    <path d="M 50 88 H 42" />
    <path d="M 78 88 H 86" />

    <path d="M 42 88 V 62" />
    <path d="M 86 88 V 62" />

    <path d="M 42 62 H 58" />
    <path d="M 70 62 H 86" />

    <path d="M 46 28 H 82" />

    <path d="M 48 30 L 52 34" />
    <path d="M 56 28 L 60 34" />
    <path d="M 64 28 L 64 36" />
    <path d="M 72 28 L 68 34" />
    <path d="M 80 30 L 76 34" />
  </g>
</svg>
